<?xml version="1.0" encoding="UTF-8"?>
<svg width="40px" height="40px" viewBox="0 0 40 40" version="1.1" xmlns="http://www.w3.org/2000/svg" xmlns:xlink="http://www.w3.org/1999/xlink">
    <defs></defs>
    <g id="desktop" stroke="none" stroke-width="1" fill="none" fill-rule="evenodd">
        <g transform="translate(-1085.000000, -1944.000000)" id="comparison" fill="#FF6542">
            <g transform="translate(0.000000, 1442.000000)">
                <g id="content" transform="translate(236.000000, 123.000000)">
                    <g id="chart" transform="translate(0.000000, 219.000000)">
                        <g id="icon/check" transform="translate(849.000000, 160.000000)">
                            <path d="M20,-0.000100000001 C31.0278788,-0.000100000001 40,8.97202121 40,19.9999 C40,31.0265667 31.0278788,39.9999 20,39.9999 C8.97212121,39.9999 0,31.0265667 0,19.9999 C0,8.97202121 8.97212121,-0.000100000001 20,-0.000100000001 Z M30.7923636,12.2127485 L16.6166061,26.0139606 L9.20812121,18.8018394 C8.876,18.4794152 8.34509091,18.4866879 8.02145455,18.8188091 C7.6990303,19.1509303 7.70630303,19.6806273 8.03842424,20.0042636 L16.0323636,27.7860818 C16.0844848,27.838203 16.1499394,27.8672939 16.2117576,27.9024455 C16.2420606,27.9194152 16.2687273,27.9472939 16.3014545,27.9606273 C16.4020606,28.0018394 16.5099394,28.0236576 16.6166061,28.0236576 C16.7232727,28.0236576 16.8311515,28.0018394 16.9317576,27.9606273 C16.9644848,27.9472939 16.9911515,27.9194152 17.0214545,27.9024455 C17.0832727,27.8672939 17.1487273,27.838203 17.2008485,27.7860818 L31.9620606,13.4151727 C32.2941818,13.0915364 32.3014545,12.5618394 31.9778182,12.2297182 C31.6541818,11.897597 31.1232727,11.8903242 30.7923636,12.2127485 Z" id="Icon"></path>
                        </g>
                    </g>
                </g>
            </g>
        </g>
    </g>
</svg>