<?xml version="1.0" encoding="UTF-8"?>
<svg width="16px" height="32px" viewBox="0 0 16 32" version="1.1" xmlns="http://www.w3.org/2000/svg" xmlns:xlink="http://www.w3.org/1999/xlink">
    <defs></defs>
    <g id="mobile" stroke="none" stroke-width="1" fill="none" fill-rule="evenodd">
        <g transform="translate(-359.000000, -2207.000000)" id="comparison" fill="#FF6542">
            <g transform="translate(0.000000, 1816.000000)">
                <g id="content" transform="translate(0.000000, 76.000000)">
                    <g id="chart" transform="translate(0.000000, 224.000000)">
                        <g id="icon/check" transform="translate(359.000000, 91.000000)">
                            <path d="M16,-8.00000009e-05 C24.822303,-8.00000009e-05 32,7.17761697 32,15.99992 C32,24.8212533 24.822303,31.99992 16,31.99992 C7.17769697,31.99992 0,24.8212533 0,15.99992 C0,7.17761697 7.17769697,-8.00000009e-05 16,-8.00000009e-05 Z M24.6338909,9.77019879 L13.2932848,20.8111685 L7.36649697,15.0414715 C7.1008,14.7835321 6.67607273,14.7893503 6.41716364,15.0550473 C6.15922424,15.3207442 6.16504242,15.7445018 6.43073939,16.0034109 L12.8258909,22.2288655 C12.8675879,22.2705624 12.9199515,22.2938352 12.9694061,22.3219564 C12.9936485,22.3355321 13.0149818,22.3578352 13.0411636,22.3685018 C13.1216485,22.4014715 13.2079515,22.4189261 13.2932848,22.4189261 C13.3786182,22.4189261 13.4649212,22.4014715 13.5454061,22.3685018 C13.5715879,22.3578352 13.5929212,22.3355321 13.6171636,22.3219564 C13.6666182,22.2938352 13.7189818,22.2705624 13.7606788,22.2288655 L25.5696485,10.7321382 C25.8353455,10.4732291 25.8411636,10.0494715 25.5822545,9.78377455 C25.3233455,9.51807758 24.8986182,9.51225939 24.6338909,9.77019879 Z" id="Icon"></path>
                        </g>
                    </g>
                </g>
            </g>
        </g>
    </g>
</svg>