<?xml version="1.0" encoding="UTF-8"?>
<svg width="123px" height="30px" viewBox="0 0 123 30" version="1.1" xmlns="http://www.w3.org/2000/svg" xmlns:xlink="http://www.w3.org/1999/xlink">
    <defs></defs>
    <g id="mobile" stroke="none" stroke-width="1" fill="none" fill-rule="evenodd">
        <g id="mobile-slidedown" transform="translate(-20.000000, -17.000000)" fill="#022F40">
            <g id="logo/positive" transform="translate(20.000000, 17.000000)">
                <path d="M15,30 C6.71572875,30 0,23.2842712 0,15 C0,6.71572875 6.71572875,0 15,0 C23.2842712,0 30,6.71572875 30,15 C30,23.2842712 23.2842712,30 15,30 Z M21.1635,17.691 L18.9165,17.691 L18.6015,19.644 C18.5385,19.959 18.4755,20.022 18.2235,20.085 C17.6775,20.253 16.8165,20.358 16.1235,20.358 C13.5195,20.358 11.9025,18.552 11.9025,14.835 C11.9025,11.265 13.6035,9.459 16.2705,9.459 C16.9635,9.459 17.6775,9.564 18.1395,9.711 C18.3495,9.774 18.4335,9.879 18.4755,10.089 L18.8115,12.147 L21.1215,12.336 L21.1215,8.22 C19.9665,7.464 18.0975,7.023 16.3545,7.023 C11.1255,7.023 8.5425,10.362 8.5425,14.835 C8.5425,19.707 10.6845,22.752 15.9135,22.752 C17.8245,22.752 19.9245,22.353 21.1635,21.597 L21.1635,17.691 Z" id="Combined-Shape" fill-rule="evenodd"></path>
                <text id="Company" font-family="AdellePE-Bold, Adelle PE" font-size="18" font-weight="bold">
                    <tspan x="40.442" y="22">Company</tspan>
                </text>
            </g>
        </g>
    </g>
</svg>